# xmcd
#
# Track frame offsets:
#	150
#	24500
#	54412
#	115916
#	151821
#	225519
#	245485
#	276110
#
# Disc length: 3999 seconds
#
# Revision: 1
# Processed by: cddbd v1.5.2PL0 Copyright (c) Steve Scherf et al.
# Submitted via: audiograbber 1.83.01
#
DISCID=5c0f9d08
DTITLE=Grateful Dead - 74-06-20 The Omni  Atlanta GA
DYEAR=1900
DGENRE=
TTITLE0=Big River
TTITLE1=Ship Of Fools
TTITLE2=Truckin'
TTITLE3=Jam
TTITLE4=Eyes Of The World
TTITLE5=Slipknot!
TTITLE6=China Doll
TTITLE7=One More Saturday Night
EXTD=
EXTT0=
EXTT1=
EXTT2=
EXTT3=
EXTT4=
EXTT5=
EXTT6=
EXTT7=
PLAYORDER=
